<?xml version="1.0" standalone="no"?><!DOCTYPE svg PUBLIC "-//W3C//DTD SVG 1.1//EN" "http://www.w3.org/Graphics/SVG/1.1/DTD/svg11.dtd"><svg t="1570194218322" class="icon" viewBox="0 0 1024 1024" version="1.1" xmlns="http://www.w3.org/2000/svg" p-id="2502" xmlns:xlink="http://www.w3.org/1999/xlink" width="200" height="200"><defs><style type="text/css"></style></defs><path d="M252.207407 259.792593c-26.548148 0-53.096296 17.066667-53.096296 43.614814s26.548148 43.614815 53.096296 43.614815 43.614815-17.066667 43.614815-43.614815c1.896296-26.548148-17.066667-43.614815-43.614815-43.614814zM542.340741 303.407407c0-26.548148-17.066667-43.614815-43.614815-43.614814s-53.096296 17.066667-53.096296 43.614814 26.548148 43.614815 53.096296 43.614815 43.614815-18.962963 43.614815-43.614815zM612.503704 512c-17.066667 0-36.02963 17.066667-36.02963 34.133333s17.066667 34.133333 36.02963 34.133334c26.548148 0 43.614815-17.066667 43.614815-34.133334s-17.066667-34.133333-43.614815-34.133333z" p-id="2503"></path><path d="M1024 625.777778c0-138.42963-128.948148-256-286.340741-267.377778v-5.688889C705.422222 204.8 546.133333 94.814815 367.881481 94.814815 164.977778 94.814815 0 235.140741 0 407.703704c0 92.918519 47.407407 176.355556 138.42963 240.829629l-32.237037 92.918519c-1.896296 5.688889 0 13.274074 3.792592 17.066667 3.792593 1.896296 7.585185 3.792593 11.377778 3.792592 1.896296 0 5.688889 0 7.585185-1.896296L246.518519 701.62963l15.17037 3.792592c36.02963 7.585185 68.266667 13.274074 106.192592 13.274074 11.377778 0 41.718519-3.792593 45.511112-7.585185 41.718519 106.192593 159.288889 182.044444 297.718518 182.044445 36.02963 0 70.162963-7.585185 102.4-17.066667l91.022222 49.303704c1.896296 1.896296 5.688889 1.896296 7.585186 1.896296 3.792593 0 7.585185-1.896296 9.481481-3.792593 5.688889-3.792593 7.585185-11.377778 5.688889-17.066666l-22.755556-75.851852c77.748148-58.785185 119.466667-132.740741 119.466667-204.8z m-621.985185 45.511111h-5.688889c-9.481481 0-18.962963 1.896296-30.340741 1.896296-32.237037 0-60.681481-5.688889-92.918518-13.274074l-18.962963-3.792592c-3.792593 0-7.585185 0-9.481482 1.896296l-83.437037 41.718518 20.859259-64.474074c1.896296-5.688889 0-13.274074-5.688888-17.066666-83.437037-56.888889-125.155556-127.051852-125.155556-208.592593 0-146.014815 140.325926-263.585185 314.785185-263.585185 153.6 0 288.237037 92.918519 316.681482 216.177778-161.185185 1.896296-290.133333 144.118519-290.133334 252.207407 0 18.962963 3.792593 37.925926 9.481482 56.888889z m458.903704 127.051852c-5.688889 3.792593-7.585185 9.481481-5.688889 15.17037l13.274074 45.511111-56.888889-30.340741c-1.896296-1.896296-3.792593-1.896296-7.585185-1.896296h-3.792593c-30.340741 7.585185-62.577778 15.17037-92.918518 15.170371-142.222222 0-257.896296-96.711111-257.896297-216.177778s115.674074-216.177778 257.896297-216.177778S967.111111 508.207407 967.111111 625.777778c0 60.681481-37.925926 121.362963-106.192592 172.562963z" p-id="2504"></path><path d="M805.925926 512c-17.066667 0-34.133333 17.066667-34.133333 34.133333s17.066667 34.133333 34.133333 34.133334c26.548148 0 43.614815-17.066667 43.614815-34.133334s-17.066667-34.133333-43.614815-34.133333z" p-id="2505"></path></svg>